<mxfile host="app.diagrams.net" agent="Mozilla/5.0 (Windows NT 10.0; Win64; x64) AppleWebKit/537.36 (KHTML, like Gecko) Chrome/132.0.0.0 Safari/537.36 Edg/132.0.0.0" version="24.8.4">
  <diagram name="Page-1" id="bVGoVmjz5mHM6l7n4imI">
    <mxGraphModel grid="0" page="0" gridSize="10" guides="1" tooltips="1" connect="1" arrows="1" fold="1" pageScale="1" pageWidth="1654" pageHeight="1169" math="0" shadow="0">
      <root>
        <mxCell id="0" />
        <mxCell id="1" parent="0" />
        <mxCell id="8mZLQG5rIGNe4Yu3c4eR-1" value="PLAYER" style="shape=umlActor;verticalLabelPosition=bottom;verticalAlign=top;html=1;outlineConnect=0;" vertex="1" parent="1">
          <mxGeometry x="176.87" y="97.25" width="30" height="60" as="geometry" />
        </mxCell>
        <mxCell id="8mZLQG5rIGNe4Yu3c4eR-6" value="" style="ellipse;whiteSpace=wrap;html=1;dashed=1;dashPattern=8 8;fillColor=none;" vertex="1" parent="1">
          <mxGeometry x="131.87" y="84.25" width="120" height="107" as="geometry" />
        </mxCell>
        <mxCell id="8mZLQG5rIGNe4Yu3c4eR-8" value="" style="ellipse;whiteSpace=wrap;html=1;dashed=1;dashPattern=8 8;fillColor=none;fontSize=7;" vertex="1" parent="1">
          <mxGeometry x="63.99999999999999" y="-5.75" width="32.75" height="32.75" as="geometry" />
        </mxCell>
        <mxCell id="8mZLQG5rIGNe4Yu3c4eR-9" value="Zone d&#39;attaque" style="text;html=1;align=center;verticalAlign=middle;whiteSpace=wrap;rounded=0;fontSize=7;" vertex="1" parent="1">
          <mxGeometry x="66.87" y="4.75" width="27" height="6.5" as="geometry" />
        </mxCell>
        <mxCell id="8mZLQG5rIGNe4Yu3c4eR-10" value="Boss" style="rhombus;whiteSpace=wrap;html=1;fillColor=#f8cecc;strokeColor=#b85450;" vertex="1" parent="1">
          <mxGeometry x="315.87" y="-32" width="80" height="80" as="geometry" />
        </mxCell>
        <mxCell id="8mZLQG5rIGNe4Yu3c4eR-11" value="" style="endArrow=classic;html=1;rounded=0;fontSize=12;startSize=8;endSize=8;curved=1;" edge="1" parent="1" source="8mZLQG5rIGNe4Yu3c4eR-10" target="8mZLQG5rIGNe4Yu3c4eR-6">
          <mxGeometry width="50" height="50" relative="1" as="geometry">
            <mxPoint x="242.87" y="86.25" as="sourcePoint" />
            <mxPoint x="292.87" y="36.25" as="targetPoint" />
          </mxGeometry>
        </mxCell>
        <mxCell id="8mZLQG5rIGNe4Yu3c4eR-12" value="" style="endArrow=classic;html=1;rounded=0;fontSize=12;startSize=8;endSize=8;curved=1;exitX=0.22;exitY=0.711;exitDx=0;exitDy=0;exitPerimeter=0;entryX=0.966;entryY=0.236;entryDx=0;entryDy=0;entryPerimeter=0;" edge="1" parent="1" source="8mZLQG5rIGNe4Yu3c4eR-10" target="8mZLQG5rIGNe4Yu3c4eR-6">
          <mxGeometry width="50" height="50" relative="1" as="geometry">
            <mxPoint x="343.87" y="36.25" as="sourcePoint" />
            <mxPoint x="246.87" y="114.25" as="targetPoint" />
          </mxGeometry>
        </mxCell>
        <mxCell id="8mZLQG5rIGNe4Yu3c4eR-13" value="" style="endArrow=classic;html=1;rounded=0;fontSize=12;startSize=8;endSize=8;curved=1;entryX=1.002;entryY=0.341;entryDx=0;entryDy=0;entryPerimeter=0;" edge="1" parent="1" target="8mZLQG5rIGNe4Yu3c4eR-6">
          <mxGeometry width="50" height="50" relative="1" as="geometry">
            <mxPoint x="333.87" y="24.25" as="sourcePoint" />
            <mxPoint x="256.87" y="124.25" as="targetPoint" />
          </mxGeometry>
        </mxCell>
        <mxCell id="8mZLQG5rIGNe4Yu3c4eR-14" value="" style="endArrow=classic;html=1;rounded=0;fontSize=12;startSize=8;endSize=8;curved=1;exitX=0;exitY=1;exitDx=0;exitDy=0;entryX=0.809;entryY=0.066;entryDx=0;entryDy=0;entryPerimeter=0;" edge="1" parent="1" source="8mZLQG5rIGNe4Yu3c4eR-10" target="8mZLQG5rIGNe4Yu3c4eR-6">
          <mxGeometry width="50" height="50" relative="1" as="geometry">
            <mxPoint x="320.87" y="19.25" as="sourcePoint" />
            <mxPoint x="223.87" y="97.25" as="targetPoint" />
          </mxGeometry>
        </mxCell>
        <mxCell id="8mZLQG5rIGNe4Yu3c4eR-15" value="" style="endArrow=classic;html=1;rounded=0;fontSize=12;startSize=8;endSize=8;curved=1;exitX=0.247;exitY=0.711;exitDx=0;exitDy=0;exitPerimeter=0;entryX=0.701;entryY=0.059;entryDx=0;entryDy=0;entryPerimeter=0;" edge="1" parent="1" source="8mZLQG5rIGNe4Yu3c4eR-10" target="8mZLQG5rIGNe4Yu3c4eR-6">
          <mxGeometry width="50" height="50" relative="1" as="geometry">
            <mxPoint x="327.87" y="22.25" as="sourcePoint" />
            <mxPoint x="215.87" y="91.25" as="targetPoint" />
          </mxGeometry>
        </mxCell>
        <mxCell id="8mZLQG5rIGNe4Yu3c4eR-16" value="Tire X bulles qui partent dans un sens ouvert vers le joueur afin que le joueur ne reste pas trop près du boss.&amp;nbsp;&lt;div&gt;Je n&#39;ai pas encore calculé le cooldown de l&#39;attaque, mais il faut que celui-ci donne le temps au joueur de se rapprocher du boss&lt;/div&gt;" style="text;html=1;align=center;verticalAlign=middle;whiteSpace=wrap;rounded=0;fontSize=16;" vertex="1" parent="1">
          <mxGeometry x="344.87" y="64.25" width="319" height="115" as="geometry" />
        </mxCell>
        <mxCell id="8mZLQG5rIGNe4Yu3c4eR-17" value="" style="ellipse;whiteSpace=wrap;html=1;dashed=1;dashPattern=8 8;fillColor=none;" vertex="1" parent="1">
          <mxGeometry x="772.87" y="73.75" width="120" height="107" as="geometry" />
        </mxCell>
        <mxCell id="8mZLQG5rIGNe4Yu3c4eR-18" value="PLAYER" style="shape=umlActor;verticalLabelPosition=bottom;verticalAlign=top;html=1;outlineConnect=0;" vertex="1" parent="1">
          <mxGeometry x="187.57" y="516" width="30" height="60" as="geometry" />
        </mxCell>
        <mxCell id="8mZLQG5rIGNe4Yu3c4eR-19" value="Boss" style="rhombus;whiteSpace=wrap;html=1;fillColor=#f8cecc;strokeColor=#b85450;" vertex="1" parent="1">
          <mxGeometry x="842.87" y="32.25" width="80" height="80" as="geometry" />
        </mxCell>
        <mxCell id="8mZLQG5rIGNe4Yu3c4eR-20" value="Lorsque le joueur reste pendant plus de X secondes successives dans la zone d&#39;attaque du joueur, il change de position (dash) à l&#39;autre bout de la map" style="text;html=1;align=center;verticalAlign=middle;whiteSpace=wrap;rounded=0;fontSize=16;" vertex="1" parent="1">
          <mxGeometry x="960.87" y="76.25" width="319" height="115" as="geometry" />
        </mxCell>
        <mxCell id="8mZLQG5rIGNe4Yu3c4eR-21" value="&lt;font style=&quot;font-size: 32px;&quot;&gt;PATTERN 1&lt;/font&gt;" style="text;html=1;align=center;verticalAlign=middle;whiteSpace=wrap;rounded=0;fontSize=16;" vertex="1" parent="1">
          <mxGeometry x="72.13" y="-128" width="260.87" height="112" as="geometry" />
        </mxCell>
        <mxCell id="8mZLQG5rIGNe4Yu3c4eR-22" value="&lt;font style=&quot;font-size: 32px;&quot;&gt;PATTERN 2&lt;/font&gt;" style="text;html=1;align=center;verticalAlign=middle;whiteSpace=wrap;rounded=0;fontSize=16;" vertex="1" parent="1">
          <mxGeometry x="78" y="334" width="260.87" height="112" as="geometry" />
        </mxCell>
        <mxCell id="8mZLQG5rIGNe4Yu3c4eR-24" value="PLAYER" style="shape=umlActor;verticalLabelPosition=bottom;verticalAlign=top;html=1;outlineConnect=0;" vertex="1" parent="1">
          <mxGeometry x="819.87" y="92.25" width="30" height="60" as="geometry" />
        </mxCell>
        <mxCell id="8mZLQG5rIGNe4Yu3c4eR-25" value="" style="ellipse;whiteSpace=wrap;html=1;dashed=1;dashPattern=8 8;fillColor=none;" vertex="1" parent="1">
          <mxGeometry x="142.57" y="499" width="120" height="107" as="geometry" />
        </mxCell>
        <mxCell id="8mZLQG5rIGNe4Yu3c4eR-26" value="Boss" style="rhombus;whiteSpace=wrap;html=1;fillColor=#f8cecc;strokeColor=#b85450;" vertex="1" parent="1">
          <mxGeometry x="402" y="394" width="80" height="80" as="geometry" />
        </mxCell>
        <mxCell id="8mZLQG5rIGNe4Yu3c4eR-27" value="" style="endArrow=classic;startArrow=classic;html=1;rounded=0;fontSize=12;startSize=8;endSize=8;curved=1;entryX=0;entryY=1;entryDx=0;entryDy=0;exitX=1;exitY=0;exitDx=0;exitDy=0;" edge="1" parent="1" source="8mZLQG5rIGNe4Yu3c4eR-25" target="8mZLQG5rIGNe4Yu3c4eR-26">
          <mxGeometry width="50" height="50" relative="1" as="geometry">
            <mxPoint x="283" y="516" as="sourcePoint" />
            <mxPoint x="333" y="466" as="targetPoint" />
          </mxGeometry>
        </mxCell>
        <mxCell id="8mZLQG5rIGNe4Yu3c4eR-28" value="Lorsque le joueur reste pendant plus de X secondes trop loin du boss (distance à définir), le boss enverra X (5 idéalement) bulles qui volent, et atterrissent autour du joueur ET sur la position du joueur. Ces bulles tombent un à un dans le sens horaire, en commençant par le milieu.&amp;nbsp;&lt;div&gt;L&#39;idée est de faire bouger le joueur hors de sa position de confort.&amp;nbsp;&lt;/div&gt;" style="text;html=1;align=center;verticalAlign=middle;whiteSpace=wrap;rounded=0;fontSize=16;" vertex="1" parent="1">
          <mxGeometry x="486" y="533" width="319" height="115" as="geometry" />
        </mxCell>
        <mxCell id="8mZLQG5rIGNe4Yu3c4eR-29" value="" style="ellipse;shape=cloud;whiteSpace=wrap;html=1;fillColor=#fff2cc;strokeColor=#d6b656;" vertex="1" parent="1">
          <mxGeometry x="42" y="527" width="71" height="49" as="geometry" />
        </mxCell>
        <mxCell id="8mZLQG5rIGNe4Yu3c4eR-30" value="" style="ellipse;shape=cloud;whiteSpace=wrap;html=1;fillColor=#fff2cc;strokeColor=#d6b656;" vertex="1" parent="1">
          <mxGeometry x="307" y="533" width="71" height="49" as="geometry" />
        </mxCell>
        <mxCell id="8mZLQG5rIGNe4Yu3c4eR-31" value="" style="ellipse;shape=cloud;whiteSpace=wrap;html=1;fillColor=#fff2cc;strokeColor=#d6b656;" vertex="1" parent="1">
          <mxGeometry x="164.5" y="639" width="71" height="49" as="geometry" />
        </mxCell>
        <mxCell id="8mZLQG5rIGNe4Yu3c4eR-32" value="" style="ellipse;shape=cloud;whiteSpace=wrap;html=1;fillColor=#fff2cc;strokeColor=#d6b656;" vertex="1" parent="1">
          <mxGeometry x="164.5" y="428" width="71" height="49" as="geometry" />
        </mxCell>
        <mxCell id="8mZLQG5rIGNe4Yu3c4eR-34" value="" style="ellipse;shape=cloud;whiteSpace=wrap;html=1;fillColor=#fff2cc;strokeColor=#d6b656;" vertex="1" parent="1">
          <mxGeometry x="164.5" y="533" width="71" height="49" as="geometry" />
        </mxCell>
        <mxCell id="8mZLQG5rIGNe4Yu3c4eR-35" value="&lt;font style=&quot;font-size: 32px;&quot;&gt;PATTERN 3, s&#39;active uniquement lorsque le boss a moins de 50% de HP&lt;/font&gt;" style="text;html=1;align=center;verticalAlign=middle;whiteSpace=wrap;rounded=0;fontSize=16;" vertex="1" parent="1">
          <mxGeometry x="-14" y="761" width="652" height="112" as="geometry" />
        </mxCell>
        <mxCell id="8mZLQG5rIGNe4Yu3c4eR-36" value="&lt;font style=&quot;font-size: 32px;&quot;&gt;PATTERN rare : le boss fait les pattern 1 et 2 en même temps&lt;/font&gt;" style="text;html=1;align=center;verticalAlign=middle;whiteSpace=wrap;rounded=0;fontSize=16;" vertex="1" parent="1">
          <mxGeometry x="913" y="527" width="908.93" height="112" as="geometry" />
        </mxCell>
        <mxCell id="8mZLQG5rIGNe4Yu3c4eR-37" value="Le boss gagne 50% (?) de vitesse de déplacement, ainsi que ses bulles d&#39;attaque du pattern 1.&amp;nbsp;&lt;div&gt;Le boss spawn 4 (?) ennemis initiaux (les bulles quoi) autour de la map qui fonctionneront comme des têtes chercheuses, mais elles explosent au bout de X temps.&amp;nbsp;&lt;/div&gt;" style="text;html=1;align=center;verticalAlign=middle;whiteSpace=wrap;rounded=0;fontSize=16;" vertex="1" parent="1">
          <mxGeometry x="160" y="926" width="319" height="115" as="geometry" />
        </mxCell>
      </root>
    </mxGraphModel>
  </diagram>
</mxfile>
